<?xml version="1.0" standalone="no"?>
<!DOCTYPE svg PUBLIC "-//W3C//DTD SVG 20010904//EN"
 "http://www.w3.org/TR/2001/REC-SVG-20010904/DTD/svg10.dtd">
<svg version="1.0" xmlns="http://www.w3.org/2000/svg"
 width="800.000000pt" height="800.000000pt" viewBox="0 0 800.000000 800.000000"
 preserveAspectRatio="xMidYMid meet">
<metadata>
Created by potrace 1.14, written by Peter Selinger 2001-2017
</metadata>
<g transform="translate(0.000000,800.000000) scale(0.100000,-0.100000)"
fill="#000000" stroke="none">
<path d="M3779 7825 c-2 -2 -44 -6 -94 -9 -49 -4 -106 -9 -125 -11 -19 -3 -55
-7 -80 -10 -142 -17 -360 -63 -535 -111 -49 -14 -97 -28 -105 -31 -8 -4 -17
-7 -20 -8 -138 -35 -533 -208 -710 -310 -96 -55 -303 -187 -315 -199 -5 -6
-32 -26 -60 -45 -44 -30 -142 -107 -213 -166 -175 -145 -411 -392 -569 -595
-62 -80 -230 -329 -262 -390 -13 -25 -30 -52 -36 -60 -18 -21 -177 -351 -209
-435 -15 -38 -34 -83 -41 -100 -31 -68 -133 -405 -142 -470 -2 -16 -8 -43 -13
-60 -10 -31 -13 -50 -30 -150 -5 -33 -12 -71 -15 -84 -2 -13 -7 -49 -10 -80
-4 -31 -8 -67 -10 -79 -26 -164 -26 -721 1 -867 3 -16 7 -46 9 -65 4 -51 17
-134 21 -141 1 -3 6 -28 9 -55 17 -127 122 -510 175 -639 182 -439 335 -714
557 -1000 380 -487 867 -878 1408 -1130 158 -73 147 -69 250 -108 185 -71 485
-158 625 -182 19 -3 70 -12 113 -20 43 -8 106 -17 140 -21 34 -3 69 -7 77 -9
91 -25 720 -26 845 -1 11 2 47 7 80 10 70 8 99 13 175 27 30 6 66 12 80 15
141 26 310 71 482 130 971 329 1780 1049 2223 1978 36 74 78 169 95 213 17 43
35 87 39 98 44 101 141 443 166 590 3 17 12 66 20 110 8 44 17 107 21 140 3
33 8 62 9 65 2 3 7 50 11 105 16 187 9 660 -11 766 -2 9 -6 40 -10 70 -66 543
-283 1126 -596 1600 -59 90 -166 238 -178 249 -3 3 -24 28 -46 55 -108 137
-329 368 -451 472 -27 23 -62 54 -79 68 -130 112 -396 295 -580 398 -135 76
-413 207 -438 207 -7 0 -17 4 -23 9 -13 13 -186 73 -331 116 -103 30 -173 48
-328 81 -11 2 -36 7 -55 10 -19 2 -57 9 -85 14 -27 5 -68 11 -90 14 -95 11
-143 16 -185 22 -50 6 -546 15 -551 9z"/>
</g>
</svg>
