<?xml version="1.0" standalone="no"?>
<!DOCTYPE svg PUBLIC "-//W3C//DTD SVG 20010904//EN"
 "http://www.w3.org/TR/2001/REC-SVG-20010904/DTD/svg10.dtd">
<svg version="1.0" xmlns="http://www.w3.org/2000/svg"
 width="851.000000pt" height="851.000000pt" viewBox="0 0 851.000000 851.000000"
 preserveAspectRatio="xMidYMid meet">
<metadata>
Created by potrace 1.14, written by Peter Selinger 2001-2017
</metadata>
<g transform="translate(0.000000,851.000000) scale(0.100000,-0.100000)"
fill="#000000" stroke="none">
<path d="M4640 8353 c-681 -48 -1237 -241 -1748 -610 -193 -138 -271 -210
-807 -745 l-530 -528 1679 -1679 1679 -1679 77 97 c87 107 262 284 358 360
253 203 578 354 912 425 582 124 1149 31 1643 -270 49 -30 91 -54 95 -54 10 0
85 196 122 320 94 318 133 590 133 935 -1 969 -361 1823 -1049 2484 -468 449
-998 738 -1599 870 -273 60 -699 93 -965 74z"/>
<path d="M1022 5819 c-160 -290 -231 -566 -232 -891 0 -435 128 -815 393
-1158 28 -36 197 -212 376 -392 198 -199 322 -331 316 -336 -6 -5 -361 -312
-790 -682 -429 -370 -804 -696 -833 -724 -75 -72 -105 -139 -105 -230 0 -138
-6 -132 511 -647 293 -293 472 -464 498 -478 23 -11 68 -24 101 -30 109 -17
198 15 279 101 22 24 344 394 714 823 370 429 679 787 686 795 12 12 61 -32
346 -316 183 -182 360 -351 393 -376 214 -162 464 -282 705 -339 89 -22 243
-49 248 -44 1 1 -7 24 -18 51 -12 27 -36 99 -55 159 -112 373 -126 761 -40
1138 14 62 28 123 31 137 4 22 -190 220 -1739 1769 l-1744 1743 -41 -73z"/>
<path d="M6532 3280 c-324 -41 -604 -177 -846 -409 -250 -241 -405 -530 -457
-851 -23 -138 -17 -431 10 -560 93 -440 359 -803 755 -1029 354 -202 855 -243
1256 -103 352 123 686 423 855 770 86 176 127 331 144 542 28 345 -51 670
-230 950 -141 219 -393 444 -622 554 -97 47 -268 103 -375 122 -104 18 -388
26 -490 14z"/>
</g>
</svg>
